<svg xmlns="http://www.w3.org/2000/svg" width="35.627" height="32.888" viewBox="0 0 35.627 32.888">
  <g id="Icon_ionic-ios-wallet" data-name="Icon ionic-ios-wallet" transform="translate(-3.375 -4.499)">
    <path id="Caminho_569" data-name="Caminho 569" d="M33.864,11.25H8.514a5.143,5.143,0,0,0-5.139,5.139V30.777a5.143,5.143,0,0,0,5.139,5.139h25.35A5.143,5.143,0,0,0,39,30.777V16.389A5.143,5.143,0,0,0,33.864,11.25Z" transform="translate(0 1.472)" fill="#fff"/>
    <path id="Caminho_570" data-name="Caminho 570" d="M28.386,4.586,8.268,8.517C6.727,8.859,4.5,10.41,4.5,12.294a5.4,5.4,0,0,1,4.2-1.627h24.58V8.911a4.918,4.918,0,0,0-1.19-3.22h0A4.05,4.05,0,0,0,28.386,4.586Z" transform="translate(0.245 0)" fill="#fff"/>
  </g>
</svg>
